<?xml version="1.0" encoding="UTF-8" standalone="no"?>
<svg
   xmlns:dc="http://purl.org/dc/elements/1.1/"
   xmlns:cc="http://creativecommons.org/ns#"
   xmlns:rdf="http://www.w3.org/1999/02/22-rdf-syntax-ns#"
   xmlns:svg="http://www.w3.org/2000/svg"
   xmlns="http://www.w3.org/2000/svg"
   xmlns:sodipodi="http://sodipodi.sourceforge.net/DTD/sodipodi-0.dtd"
   xmlns:inkscape="http://www.inkscape.org/namespaces/inkscape"
   width="99.837997mm"
   height="99.837997mm"
   viewBox="0 0 99.837998 99.837997"
   version="1.1"
   id="svg1470"
   inkscape:version="1.0.2 (e86c870879, 2021-01-15)"
   sodipodi:docname="logo_mono_dark.svg">
   <style>
    circle, g, path {
      fill: white;      
    }
    @media (prefers-color-scheme: dark) {
      circle, g, path {
        fill: black;
      }
    }
  </style>
  <defs
     id="defs1464" />
  <sodipodi:namedview
     id="base"
     pagecolor="#ffffff"
     bordercolor="#666666"
     borderopacity="1.0"
     inkscape:pageopacity="0.0"
     inkscape:pageshadow="2"
     inkscape:zoom="0.35"
     inkscape:cx="400"
     inkscape:cy="560"
     inkscape:document-units="mm"
     inkscape:current-layer="layer1"
     inkscape:document-rotation="0"
     showgrid="false"
     inkscape:window-width="1848"
     inkscape:window-height="1016"
     inkscape:window-x="0"
     inkscape:window-y="0"
     inkscape:window-maximized="1" />
  <metadata
     id="metadata1467">
    <rdf:RDF>
      <cc:Work
         rdf:about="">
        <dc:format>image/svg+xml</dc:format>
        <dc:type
           rdf:resource="http://purl.org/dc/dcmitype/StillImage" />
        <dc:title></dc:title>
      </cc:Work>
    </rdf:RDF>
  </metadata>
  <g
     inkscape:label="Layer 1"
     inkscape:groupmode="layer"
     id="layer1">
    <g
       id="g10"
       transform="matrix(0.26458333,0,0,0.26458333,6.9308206,-9.5249999)">
      <path
         class="cls-1"
         d="m 82.29,114.37 v 0.37 C 31.532719,142.73122 0.0088462,196.10613 0,254.07 c 0.06,88 71.31,159.27 159.2,159.27 87.89,0 159.13,-71.34 159.19,-159.27 C 318.381,196.10613 286.85728,142.73122 236.1,114.74 V 54.06 C 222.56273,46.512799 203.14244,37.66889 186.22,36 l 0.38,51.42 v 9.51 0 0.38 C 168.25382,94.13406 149.49577,94.164511 131.16,97.4 V 36.09 c -16.59344,1.710759 -33.848755,9.8702 -48.91,18 v 60.28 z m 75.9,235.06 c -1.02953,3.15066 -3.97544,5.27624 -7.29,5.26 h -0.7 C 116.53434,351.69619 86.671533,331.86668 70.85,302 c -2.739824,-5.07489 0.932751,-11.23605 6.7,-11.24 h 89.22 c 5.19391,-0.0129 8.8702,5.07186 7.23,10 z m 92.88,-55.24 c -13.1875,31.12204 -41.23429,53.45183 -74.52,59.33 -0.45227,0.0801 -0.9107,0.12021 -1.37,0.12 v 0 c -2.44603,-0.008 -4.74173,-1.18149 -6.18,-3.16 -1.4358,-1.96388 -1.83435,-4.50043 -1.07,-6.81 l 27.58,-85 c 1.58714,-4.92167 7.52383,-6.84982 11.7,-3.8 L 248.57,285 c 2.88086,2.10111 3.91947,5.91905 2.5,9.19 z M 224.72,179.65 c 25.61138,22.17183 38.2729,55.79167 33.65,89.35 -0.34842,2.68812 -2.09509,4.99037 -4.59,6.05 -2.43715,1.06089 -5.25424,0.74873 -7.4,-0.82 L 174,222 c -1.30118,-0.92969 -2.27161,-2.25046 -2.77,-3.77 v 0 c -0.26341,-0.81018 -0.39179,-1.65816 -0.38,-2.51 -0.0397,-2.4675 1.11964,-4.80103 3.11,-6.26 l 41.24,-30.22 c 2.87796,-2.10902 6.83402,-1.93864 9.52,0.41 z m -117,-10.59 c 28.94442,-17.39661 64.7268,-18.96218 95.08,-4.16 2.44879,1.17227 4.09283,3.5546 4.32,6.26 0.0231,0.33293 0.0231,0.66707 0,1 -0.021,2.3814 -1.17618,4.61009 -3.11,6 l -72.19,52.45 c -1.29197,0.94312 -2.85041,1.45093 -4.45,1.45 v 0 c -3.29756,0.009 -6.22337,-2.11305 -7.24,-5.25 l -15.8,-48.61 c -0.27503,-0.84167 -0.40026,-1.72506 -0.37,-2.61 0.0241,-2.68473 1.45016,-5.16144 3.76,-6.53 z M 87.1,185.51 c 3.977156,-4.16234 10.956265,-2.58041 12.75,2.89 l 27.56,84.92 c 1.6402,4.92814 -2.03609,10.01292 -7.23,10 H 69 c -3.492595,0.004 -6.536018,-2.37843 -7.37,-5.77 -7.623149,-32.99554 1.948076,-67.60846 25.44,-92 z"
         id="path6-3"
         sodipodi:nodetypes="cccscccccccccccccccccccccccsscccccccccccssccccccccccsscccccccccccc" />
      <circle
         class="cls-1"
         cx="308.95001"
         cy="121.53"
         r="16"
         id="circle8-67" />
    </g>
  </g>
</svg>
