<?xml version="1.0" standalone="no"?>
<!DOCTYPE svg PUBLIC "-//W3C//DTD SVG 20010904//EN"
 "http://www.w3.org/TR/2001/REC-SVG-20010904/DTD/svg10.dtd">
<svg version="1.0" xmlns="http://www.w3.org/2000/svg"
 width="700.000000pt" height="700.000000pt" viewBox="0 0 700.000000 700.000000"
 preserveAspectRatio="xMidYMid meet">
<metadata>
Created by potrace 1.14, written by Peter Selinger 2001-2017
</metadata>
<g transform="translate(0.000000,700.000000) scale(0.100000,-0.100000)"
fill="#000000" stroke="none">
<path d="M2850 6989 c-19 -3 -51 -9 -70 -13 -158 -30 -367 -110 -622 -236
l-148 -74 0 -565 0 -566 -47 -25 c-84 -44 -275 -175 -383 -263 -145 -118 -300
-270 -415 -410 -22 -27 -45 -54 -50 -60 -6 -7 -43 -57 -82 -112 -229 -323
-402 -714 -479 -1080 -10 -45 -43 -243 -49 -285 -23 -187 -24 -501 0 -680 2
-19 7 -55 10 -80 9 -72 43 -245 64 -323 136 -516 396 -970 770 -1346 125 -125
154 -151 281 -250 36 -28 70 -54 75 -59 6 -4 55 -38 110 -74 147 -97 300 -180
454 -244 75 -31 145 -60 156 -65 92 -39 346 -107 500 -133 17 -3 41 -8 55 -11
24 -5 52 -8 195 -23 143 -14 557 -6 649 13 12 2 39 6 61 9 143 18 358 72 542
136 469 165 905 462 1233 840 36 41 67 77 70 80 11 11 99 129 141 190 217 310
399 741 463 1095 12 63 35 202 41 245 14 96 13 534 0 650 -66 552 -254 1029
-577 1457 -129 172 -312 366 -448 478 -25 20 -54 45 -66 55 -58 49 -212 156
-309 215 l-109 66 -1 559 c0 359 -4 562 -10 568 -18 16 -176 96 -295 149 -216
95 -418 157 -582 178 l-37 5 4 -562 c2 -309 2 -565 0 -569 -3 -3 -24 -3 -47 1
-262 48 -703 45 -950 -6 l-28 -6 0 284 c-1 156 -2 411 -3 567 -2 313 2 294
-67 280z m783 -2203 c203 -24 403 -79 577 -159 89 -41 126 -96 116 -169 -7
-51 -26 -74 -108 -133 -38 -28 -88 -64 -111 -81 -75 -56 -285 -209 -307 -224
-32 -22 -144 -103 -235 -170 -409 -300 -663 -479 -685 -483 -44 -9 -103 10
-132 42 -19 22 -52 107 -123 328 -54 164 -116 354 -138 423 -23 69 -42 127
-42 130 0 3 -7 22 -14 43 -7 20 -14 52 -15 70 -4 39 26 101 57 121 195 122
447 214 692 252 127 20 344 24 468 10z m1008 -444 c89 -58 275 -271 376 -433
124 -198 231 -486 258 -693 14 -110 18 -156 19 -254 2 -144 -11 -288 -31 -329
-31 -65 -118 -96 -181 -64 -31 16 -151 98 -187 128 -5 5 -98 72 -204 148 -107
77 -295 212 -417 300 -122 88 -300 216 -395 285 -96 68 -180 131 -187 140 -52
62 -46 150 16 204 34 31 744 552 786 577 45 27 94 24 147 -9z m-2375 -88 c18
-9 42 -30 53 -48 10 -17 62 -166 116 -331 53 -165 105 -325 115 -355 31 -93
231 -710 257 -795 14 -44 29 -89 34 -100 33 -71 5 -161 -60 -194 -36 -19 -62
-20 -537 -20 -476 -1 -500 0 -539 19 -53 25 -70 57 -89 160 -9 47 -18 99 -21
115 -13 66 -12 353 1 460 47 367 204 717 445 994 96 110 147 132 225 95z
m2028 -1298 c27 -11 641 -451 736 -527 14 -11 36 -27 50 -36 42 -25 73 -78 73
-126 0 -71 -117 -289 -247 -462 -118 -156 -316 -336 -486 -442 -203 -126 -498
-237 -665 -250 -73 -5 -114 16 -143 74 -22 45 -21 81 6 160 11 32 66 200 122
373 137 424 216 668 250 770 15 47 51 157 80 245 53 164 72 198 125 221 39 17
58 17 99 0z m-644 -702 c38 -22 70 -76 70 -118 0 -17 -27 -111 -59 -211 -32
-99 -102 -314 -155 -477 -119 -364 -122 -369 -275 -354 -36 3 -76 8 -87 10
-12 2 -39 7 -60 10 -65 10 -248 65 -337 101 -358 144 -659 394 -871 722 -89
139 -108 203 -76 264 15 27 71 67 100 71 14 1 406 3 871 2 819 0 847 -1 879
-20z"/>
<path d="M6129 5696 c-123 -43 -200 -143 -205 -266 -10 -258 278 -406 480
-246 100 80 137 233 83 348 -30 66 -87 125 -146 151 -55 25 -160 31 -212 13z"/>
</g>
</svg>
